<svg width="27" height="27" viewBox="0 0 27 27" fill="none" xmlns="http://www.w3.org/2000/svg">
<path fill-rule="evenodd" clip-rule="evenodd" d="M12.5243 0.0141367C10.8164 0.180604 9.43645 0.524829 8.09226 1.11973C7.10359 1.55724 5.91875 2.24458 5.63794 2.54348C5.35856 2.84086 5.54213 3.32712 5.95821 3.39207C6.11687 3.41682 6.21406 3.37265 6.72043 3.04568C7.40043 2.60654 8.45527 2.07732 9.20028 1.80143C9.73255 1.6043 11.0449 1.2499 11.2425 1.2499C11.3473 1.2499 11.3475 1.25264 11.2527 1.39499C10.3981 2.67755 9.79787 4.26419 9.30919 6.53231L9.2226 6.93415L8.86956 7.02126C8.09754 7.21173 7.51245 7.76385 7.25539 8.54437C7.227 8.63063 7.05505 8.6367 4.63793 8.6367C3.21507 8.6367 2.05091 8.62156 2.05091 8.60299C2.05091 8.50859 2.66196 7.33604 2.92693 6.92191C3.30519 6.33086 3.33104 6.12572 3.05789 5.88169C2.90657 5.74646 2.84958 5.72693 2.67452 5.75041C2.40321 5.78682 2.36248 5.82618 2.0164 6.38562C-0.768105 10.8871 -0.660943 16.6275 2.28966 21.0259L2.51412 21.3604L2.35894 21.6612C2.14478 22.0765 2.06537 22.5731 2.14177 23.0192C2.39672 24.5075 3.9986 25.3191 5.32791 24.6336L5.62649 24.4796L6.09434 24.7827C8.23915 26.1727 10.4967 26.8866 13.0474 26.9815C17.7553 27.1566 22.1958 24.8441 24.8259 20.8476C26.3189 18.5789 27.0932 15.7857 26.991 13.0379C26.8962 10.4871 26.1823 8.22958 24.7923 6.08477L24.4891 5.61692L24.6431 5.31834C24.8562 4.9052 24.9354 4.40791 24.8591 3.96259C24.604 2.47305 23.0023 1.66266 21.6708 2.34937L21.37 2.50455L21.0354 2.28009C19.3563 1.15366 17.4693 0.429275 15.3999 0.116602C14.8744 0.0371941 12.9802 -0.0302897 12.5243 0.0141367ZM13.9623 1.16891C15.12 1.70788 16.2774 4.32492 16.8217 7.63421C16.8813 7.99695 16.9431 8.37115 16.959 8.4657L16.9878 8.63765L14.2627 8.62399L11.5376 8.61032L11.4412 8.35637C11.2617 7.88325 10.9285 7.52673 10.2873 7.12177C10.2562 7.1022 10.4224 6.33582 10.6339 5.52369C11.3295 2.85104 12.4874 1.0399 13.5005 1.0399C13.602 1.0399 13.8099 1.09794 13.9623 1.16891ZM16.5691 1.42797C16.9562 1.5259 17.5104 1.69395 17.8006 1.80143C19.004 2.24706 20.7245 3.21278 20.651 3.40136C20.5231 3.72944 20.4549 4.15755 20.4809 4.46849C20.6094 6.00441 22.1192 6.91373 23.5894 6.34062C23.6602 6.31297 23.7456 6.40631 23.9842 6.77196C24.2724 7.21353 24.95 8.48886 24.95 8.58974C24.95 8.6167 23.4813 8.6367 21.5042 8.6367H18.0583L17.914 7.75292C17.4938 5.17899 16.7967 3.03091 15.9577 1.72476C15.8365 1.53614 15.7194 1.35215 15.6975 1.31585C15.6347 1.21217 15.8003 1.23349 16.5691 1.42797ZM23.2152 3.29678C24.0757 3.74632 24.0255 4.96303 23.1297 5.37221C22.3619 5.72292 21.4504 5.05742 21.5322 4.20588C21.5878 3.62686 22.1071 3.14936 22.6812 3.14936C22.8543 3.14936 23.0212 3.19542 23.2152 3.29678ZM3.86595 4.06743C3.66857 4.26482 3.63923 4.43488 3.76175 4.67183C3.94336 5.02297 4.48502 5.02297 4.66663 4.67183C4.80666 4.401 4.72135 4.09302 4.47035 3.96323C4.2334 3.84071 4.06334 3.87005 3.86595 4.06743ZM9.89628 8.1372C10.4481 8.4122 10.6942 9.07157 10.447 9.61281C10.0358 10.513 8.82287 10.5587 8.36695 9.69117C8.23884 9.44735 8.21815 9.35459 8.23578 9.10244C8.29461 8.26082 9.14836 7.76453 9.89628 8.1372ZM7.25539 9.78429C7.44618 10.3636 7.89044 10.8922 8.39275 11.1376L8.69323 11.2844L8.66305 12.7438C8.63604 14.049 8.67366 15.2956 8.78631 16.8281L8.82023 17.2898H5.22861H1.63699L1.58148 17.1183C1.46609 16.7619 1.26168 15.8393 1.17188 15.2696C1.10218 14.8271 1.07907 14.3723 1.08013 13.4645C1.08187 12.0229 1.18444 11.2709 1.55705 9.96896L1.6363 9.69196H4.43062C7.04518 9.69196 7.22695 9.69792 7.25539 9.78429ZM17.113 9.75791C17.2222 10.0946 17.3322 13.4888 17.2752 14.7644L17.2359 15.6421L17.0617 15.6704C16.7422 15.7222 16.303 15.9812 16.0053 16.2933C15.7423 16.569 15.4545 17.0541 15.4532 17.2239C15.4524 17.3204 9.91918 17.3204 9.88789 17.2239C9.77877 16.8876 9.66871 13.4934 9.72564 12.22L9.76474 11.3449L10.0223 11.2789C10.3475 11.1955 10.8433 10.8774 11.065 10.6099C11.2184 10.4248 11.4339 10.0289 11.5145 9.78429C11.543 9.69792 11.7237 9.69196 14.3183 9.69196C16.4904 9.69196 17.0963 9.70626 17.113 9.75791ZM25.4194 9.86344C25.5355 10.222 25.7394 11.1437 25.8283 11.7122C25.9593 12.5484 25.9596 14.3976 25.8291 15.2321C25.732 15.8529 25.5881 16.5201 25.445 17.0128L25.3646 17.2898H22.5573H19.75L19.5988 16.943C19.4073 16.5031 19.03 16.0888 18.6241 15.8724L18.3075 15.7038L18.3378 14.2412C18.3649 12.9327 18.3274 11.6875 18.2146 10.1536L18.1807 9.69196H21.7723H25.3639L25.4194 9.86344ZM18.0942 16.8018C18.2817 16.8968 18.4351 17.0258 18.539 17.1756C18.6823 17.3824 18.6976 17.4443 18.6976 17.8174C18.6976 18.1906 18.6823 18.2525 18.539 18.4593C18.3535 18.7268 17.9075 18.9784 17.6197 18.9779C16.9527 18.9769 16.4345 18.4695 16.4345 17.8174C16.4345 16.9437 17.3135 16.4058 18.0942 16.8018ZM9.08689 19.2289C9.51544 21.8539 10.2154 23.985 11.093 25.3362C11.2916 25.6418 11.3173 25.7081 11.2423 25.7207C11.0998 25.7445 9.78273 25.396 9.20028 25.1803C7.99687 24.7347 6.27643 23.769 6.34993 23.5804C6.47782 23.2523 6.54605 22.8242 6.52003 22.5133C6.3915 20.9774 4.88169 20.068 3.41156 20.6412C3.34075 20.6688 3.25533 20.5755 3.01668 20.2098C2.72849 19.7682 2.05091 18.4929 2.05091 18.392C2.05091 18.3651 3.51957 18.3451 5.49675 18.3451H8.94259L9.08689 19.2289ZM15.4532 18.411C15.4535 18.4473 15.512 18.6021 15.5832 18.7551C15.7432 19.0988 16.1687 19.5567 16.483 19.7235C16.6128 19.7923 16.719 19.8758 16.719 19.909C16.719 20.0308 16.3984 21.3769 16.2392 21.9239C15.6458 23.9617 14.7874 25.4287 13.9641 25.812C13.6125 25.9757 13.3888 25.9759 13.0386 25.8129C11.8796 25.2733 10.7659 22.7565 10.1776 19.3476C10.0899 18.8397 10.0182 18.4064 10.0182 18.3846C10.0181 18.3629 11.2409 18.3451 12.7354 18.3451C14.8738 18.3451 15.4528 18.3591 15.4532 18.411ZM24.95 18.3795C24.95 18.4501 24.3256 19.6532 24.1046 20.0082C23.1224 21.587 21.5966 23.1128 20.0178 24.0951C19.4646 24.4392 18.5003 24.9109 17.851 25.1549C17.2754 25.3712 15.969 25.7319 15.7609 25.7319C15.6534 25.7319 15.6532 25.7295 15.7483 25.5868C16.5949 24.316 17.2211 22.6619 17.6924 20.4506L17.7778 20.0498L18.1058 19.9586C18.8119 19.7623 19.3205 19.3308 19.5988 18.6919L19.75 18.3451H22.35C23.78 18.3451 24.95 18.3606 24.95 18.3795ZM4.85368 21.6583C5.73682 22.1196 5.64876 23.3997 4.70921 23.7584C3.95634 24.046 3.11408 23.4172 3.17054 22.6097C3.21328 21.9985 3.72328 21.5108 4.31972 21.5108C4.49283 21.5108 4.65967 21.5569 4.85368 21.6583Z" fill="#8E2424"/>
</svg>
